# Blender v2.65 (sub 0) OBJ File: 'horse_30.blend'
# www.blender.org
o backLeftLeg_LP.002_horse_LP.001_horse_LP.001_Cube.024
v -0.186384 -1.545223 -0.018014
v 0.136812 -1.517576 0.214374
v -0.027752 -1.530614 0.240977
v 0.229011 -1.518121 -0.019179
v -0.026926 -1.544340 -0.233242
v 0.160625 -1.514747 -0.204340
v 0.155895 -0.829627 0.171937
v 0.185097 -1.101053 0.220409
v 0.321049 -1.110860 -0.018340
v 0.244815 -0.818967 -0.017511
v -0.075666 -0.825558 0.203336
v -0.088302 -1.096594 0.274220
v -0.231551 -0.823265 -0.024354
v -0.271350 -1.085761 -0.021846
v 0.152596 -0.822171 -0.215760
v 0.188547 -1.101226 -0.251553
v -0.084658 -1.100579 -0.311255
v -0.066651 -0.826359 -0.249940
v -0.171229 -1.315366 -0.315815
v -0.317844 -1.316409 -0.016488
v 0.242356 -1.323001 -0.259942
v 0.222150 -1.322740 0.244203
v 0.356560 -1.301287 -0.037332
v -0.172597 -1.307665 0.284183
v 0.085865 -0.014622 0.075133
v -0.131930 -0.012132 -0.039083
v -0.055337 -0.014092 0.078054
v 0.139635 -0.012106 -0.031070
v 0.085568 -0.011018 -0.135154
v -0.054365 -0.011885 -0.145041
v 0.152714 -0.067346 0.143703
v 0.237215 -0.057844 -0.014746
v -0.097595 -0.071534 0.158581
v -0.223509 -0.063704 -0.033010
v 0.137890 -0.063689 -0.203875
v -0.100697 -0.059784 -0.211565
vt 0.378633 0.914121
vt 0.314487 0.966763
vt 0.356556 0.965742
vt 0.296449 0.912040
vt 0.358528 0.871167
vt 0.316239 0.870855
vt 0.767911 0.802322
vt 0.862607 0.816160
vt 0.856645 0.760668
vt 0.766871 0.754491
vt 0.769418 0.852580
vt 0.875006 0.869096
vt 0.568836 0.918547
vt 0.475863 0.917661
vt 0.464498 0.975747
vt 0.569344 0.969109
vt 0.772682 0.707943
vt 0.867752 0.706417
vt 0.887949 0.655188
vt 0.781171 0.658131
vt 0.570959 0.868635
vt 0.467215 0.858579
vt 0.415939 0.851661
vt 0.426716 0.916418
vt 0.923135 0.709733
vt 0.940367 0.625387
vt 0.919183 0.819836
vt 0.918109 0.763803
vt 0.412650 0.980903
vt 0.922898 0.906034
vt 0.731882 0.968850
vt 0.661808 0.919434
vt 0.674188 0.962471
vt 0.759327 0.919212
vt 0.731633 0.872674
vt 0.674703 0.878691
vt 0.979295 0.715713
vt 0.990558 0.672011
vt 0.972512 0.824580
vt 0.984873 0.765534
vt 0.976105 0.869083
vt 0.720563 0.795403
vt 0.721983 0.751402
vt 0.716624 0.844323
vt 0.615322 0.918990
vt 0.621766 0.965790
vt 0.725147 0.708706
vt 0.727781 0.659602
vt 0.622831 0.873663
vt 0.673215 0.788484
vt 0.677096 0.748314
vt 0.663830 0.836065
vt 0.677612 0.709468
vt 0.674391 0.661073
vn -0.560259 -0.828272 0.001312
vn 0.384167 -0.710318 0.589740
vn -0.171300 -0.735527 0.655446
vn 0.609180 -0.792810 0.017243
vn -0.145909 -0.794000 -0.590106
vn 0.419477 -0.714621 -0.559740
vn 0.571978 0.141636 0.807947
vn 0.561754 0.174444 0.808679
vn 0.976074 0.217048 0.011933
vn 0.992401 0.122990 0.002411
vn -0.413739 0.131870 0.900754
vn -0.349467 0.199835 0.915372
vn -0.995148 0.097171 -0.013184
vn -0.970306 0.241493 -0.012879
vn 0.574908 0.123753 -0.808771
vn 0.561388 0.162145 -0.811487
vn -0.334422 0.164830 -0.927885
vn -0.391919 0.109714 -0.913419
vn -0.518967 -0.146153 -0.842189
vn -0.990204 -0.139470 -0.002808
vn 0.619892 -0.155126 -0.769189
vn 0.615802 -0.123112 0.778191
vn 0.992492 -0.118992 -0.027589
vn -0.546831 -0.099612 0.831263
vn 0.135411 0.940489 0.311594
vn -0.336528 0.941649 0.000122
vn -0.151646 0.934019 0.323435
vn 0.294229 0.955657 -0.010071
vn 0.168432 0.940092 -0.296365
vn -0.138005 0.936186 -0.323222
vn 0.497757 0.463057 0.733329
vn 0.877071 0.480087 0.014527
vn -0.397534 0.440565 0.804865
vn -0.894436 0.447127 -0.002258
vn 0.499374 0.443281 -0.744346
vn -0.400250 0.448225 -0.799280
s 1
f 1/1/1 2/2/2 3/3/3
f 1/1/1 4/4/4 2/2/2
f 4/4/4 1/1/1 5/5/5
f 5/5/5 6/6/6 4/4/4
f 7/7/7 8/8/8 9/9/9 10/10/10
f 11/11/11 12/12/12 8/8/8 7/7/7
f 13/13/13 14/14/14 12/15/12 11/16/11
f 15/17/15 16/18/16 17/19/17 18/20/18
f 10/10/10 9/9/9 16/18/16 15/17/15
f 18/21/18 17/22/17 14/14/14 13/13/13
f 17/22/17 19/23/19 20/24/20 14/14/14
f 16/18/16 21/25/21 19/26/19 17/19/17
f 8/8/8 22/27/22 23/28/23 9/9/9
f 9/9/9 23/28/23 21/25/21 16/18/16
f 14/14/14 20/24/20 24/29/24 12/15/12
f 12/12/12 24/30/24 22/27/22 8/8/8
f 25/31/25 26/32/26 27/33/27
f 28/34/28 26/32/26 25/31/25
f 29/35/29 26/32/26 28/34/28
f 29/35/29 30/36/30 26/32/26
f 21/25/21 6/37/6 5/38/5 19/26/19
f 1/1/1 20/24/20 19/23/19 5/5/5
f 22/27/22 2/39/2 4/40/4 23/28/23
f 23/28/23 4/40/4 6/37/6 21/25/21
f 20/24/20 1/1/1 3/3/3 24/29/24
f 24/30/24 3/41/3 2/39/2 22/27/22
f 31/42/31 7/7/7 10/10/10 32/43/32
f 33/44/33 11/11/11 7/7/7 31/42/31
f 34/45/34 13/13/13 11/16/11 33/46/33
f 35/47/35 15/17/15 18/20/18 36/48/36
f 32/43/32 10/10/10 15/17/15 35/47/35
f 36/49/36 18/21/18 13/13/13 34/45/34
f 25/50/25 31/42/31 32/43/32 28/51/28
f 27/52/27 33/44/33 31/42/31 25/50/25
f 26/32/26 34/45/34 33/46/33 27/33/27
f 29/53/29 35/47/35 36/48/36 30/54/30
f 28/51/28 32/43/32 35/47/35 29/53/29
f 30/36/30 36/49/36 34/45/34 26/32/26
