# Blender v2.65 (sub 0) OBJ File: 'horse_30.blend'
# www.blender.org
o backLeftLeg_LP.003_horse_LP.001_horse_LP.001_Cube.025
v 0.127192 -0.075212 0.169366
v 0.061538 -0.086594 0.233696
v 0.079679 -0.216766 0.372059
v 0.206460 -0.212875 0.238737
v -0.148850 -0.093943 -0.086175
v -0.090440 -0.086800 -0.180072
v -0.102432 -0.230167 -0.242283
v -0.188154 -0.231264 -0.114221
v -0.008659 -0.092623 -0.231153
v 0.055292 -0.087434 -0.224088
v 0.095345 -0.226854 -0.289895
v -0.000397 -0.234027 -0.300758
v -0.215671 -0.242628 0.179278
v -0.230281 -0.236689 0.042478
v -0.259748 -0.356004 0.093158
v -0.224140 -0.370670 0.295340
v -0.111950 -0.225018 0.311477
v -0.102407 -0.369451 0.459267
v 0.092463 -0.366975 0.508267
v 0.129038 -0.073269 -0.139041
v 0.155852 -0.063259 0.025661
v 0.228318 -0.199144 0.033303
v 0.189325 -0.216957 -0.189210
v -0.102675 -0.088709 0.190103
v -0.157255 -0.099528 0.113664
v -0.171452 -0.092652 0.025909
v 0.142022 -0.328090 -0.293811
v 0.033920 -0.331238 -0.317823
v -0.091135 -0.323849 -0.267503
v -0.213924 -0.336469 -0.102247
v 0.252422 -0.359711 0.369385
v 0.295049 -0.334606 0.120196
v 0.257903 -0.341466 -0.141037
v 0.317294 -0.588487 0.185672
v 0.287095 -0.591731 -0.038080
v -0.094636 -0.591639 0.535201
v 0.098786 -0.590477 0.585113
v -0.272482 -0.589413 0.141370
v -0.206537 -0.591673 0.385947
v 0.168933 -0.598157 -0.170754
v 0.029714 -0.591718 -0.199068
v -0.124668 -0.591617 -0.138574
v -0.237062 -0.589693 -0.005548
v 0.259427 -0.591646 0.438637
v -0.066280 -0.009576 0.157195
v -0.112299 -0.009716 0.084722
v 0.101269 -0.009716 0.120440
v 0.056199 -0.009716 0.175409
v -0.110045 -0.009716 -0.063913
v -0.066454 -0.009716 -0.132260
v -0.000540 -0.009716 -0.180042
v 0.054992 -0.009716 -0.168270
v 0.104716 -0.009716 -0.098613
v 0.123489 -0.010691 0.019061
v -0.127218 -0.009716 0.024231
vt 0.538556 0.691395
vt 0.548171 0.710117
vt 0.520460 0.738169
vt 0.505976 0.710605
vt 0.093742 0.860468
vt 0.117790 0.866807
vt 0.115388 0.897746
vt 0.085550 0.891529
vt 0.136949 0.873472
vt 0.150141 0.873790
vt 0.152436 0.902947
vt 0.135731 0.902404
vt 0.600344 0.764229
vt 0.630283 0.757523
vt 0.620072 0.789510
vt 0.569746 0.793878
vt 0.571553 0.760228
vt 0.538127 0.793245
vt 0.492334 0.770653
vt 0.172911 0.866905
vt 0.208761 0.851112
vt 0.225037 0.885666
vt 0.177404 0.899712
vt 0.584216 0.724871
vt 0.605901 0.727136
vt 0.625998 0.721686
vt 0.158056 0.921652
vt 0.139678 0.919832
vt 0.116801 0.916321
vt 0.076949 0.913728
vt 0.479443 0.744159
vt 0.251822 0.921068
vt 0.192730 0.926002
vt 0.250815 0.986586
vt 0.210688 0.985186
vt 0.513830 0.839162
vt 0.465619 0.812988
vt 0.616151 0.845866
vt 0.557128 0.845866
vt 0.166783 0.982158
vt 0.132934 0.976099
vt 0.093129 0.974847
vt 0.050817 0.971759
vt 0.441110 0.780631
vt 0.591473 0.705051
vt 0.607287 0.706724
vt 0.533622 0.657808
vt 0.498827 0.665358
vt 0.243762 0.841324
vt 0.216809 0.817248
vt 0.209226 0.787076
vt 0.559303 0.678845
vt 0.565196 0.694271
vt 0.097413 0.842444
vt 0.116605 0.847705
vt 0.135612 0.853191
vt 0.148902 0.851161
vt 0.169250 0.843994
vt 0.195028 0.829244
vt 0.621845 0.705279
vt 0.136494 0.789479
vt 0.159146 0.754166
vt 0.158507 0.773149
vt 0.557738 0.655009
vt 0.049968 0.883994
vt 0.026711 0.910492
vt 0.467347 0.691322
vt 0.410978 0.713346
vt 0.014132 0.968359
vt 0.068110 0.850234
vt 0.076606 0.834466
vt 0.315509 0.841241
vt 0.280545 0.850499
vt 0.223836 0.751239
vt 0.255015 0.728263
vt 0.359811 0.802802
vt 0.325339 0.706722
vt 0.378214 0.766606
vt 0.362553 0.716423
vt 0.056935 0.716856
vt 0.096121 0.720492
vt 0.074176 0.796666
vt 0.051050 0.788239
vt 0.139653 0.731739
vt 0.109491 0.797131
vt 0.034176 0.726444
vt 0.036813 0.769043
vn 0.711509 0.575884 0.402539
vn 0.182592 0.664724 0.724387
vn 0.167028 0.701895 0.692404
vn 0.738639 0.570727 0.358623
vn -0.850826 0.396924 -0.344249
vn -0.638661 0.435347 -0.634449
vn -0.654073 0.229133 -0.720847
vn -0.885800 0.227668 -0.404340
vn -0.204779 0.485092 -0.850124
vn 0.351634 0.514695 -0.781915
vn 0.399091 0.344615 -0.849666
vn -0.193518 0.270760 -0.942961
vn -0.864315 0.397534 0.308023
vn -0.955107 0.290963 -0.055483
vn -0.991974 0.125889 -0.010987
vn -0.877712 0.263771 0.399976
vn -0.497147 0.603442 0.623432
vn -0.509140 0.431776 0.744499
vn 0.201117 0.490707 0.847774
vn 0.772210 0.487075 -0.407941
vn 0.870998 0.491165 0.008087
vn 0.890164 0.454634 -0.029603
vn 0.800134 0.392743 -0.453322
vn -0.526841 0.575976 0.625019
vn -0.821711 0.476974 0.311838
vn -0.906003 0.422712 -0.021455
vn 0.515549 -0.041200 -0.855831
vn -0.077395 -0.134770 -0.987823
vn -0.583056 -0.098025 -0.806482
vn -0.899441 0.014039 -0.436750
vn 0.800501 0.378948 0.464278
vn 0.961699 0.272408 0.029572
vn 0.905942 0.119114 -0.406262
vn 0.774255 -0.631275 0.044832
vn 0.707999 -0.661153 -0.248115
vn -0.439863 -0.536180 0.720389
vn 0.192999 -0.487472 0.851527
vn -0.767663 -0.640522 0.019959
vn -0.696890 -0.619343 0.361522
vn 0.373821 -0.761284 -0.529771
vn -0.074587 -0.770531 -0.633015
vn -0.432752 -0.755608 -0.491684
vn -0.675100 -0.683981 -0.276345
vn 0.692648 -0.571276 0.440260
vn -0.310648 0.827448 0.467727
vn -0.497971 0.844905 0.195227
vn 0.476394 0.850429 0.223090
vn 0.170019 0.834284 0.524400
vn -0.518204 0.832820 -0.194525
vn -0.393262 0.846370 -0.359142
vn -0.125370 0.831629 -0.540971
vn 0.296243 0.832545 -0.468062
vn 0.512345 0.833613 -0.206244
vn 0.546648 0.837306 0.007019
vn -0.560564 0.828059 0.003906
s 1
f 1/1/1 2/2/2 3/3/3 4/4/4
f 5/5/5 6/6/6 7/7/7 8/8/8
f 9/9/9 10/10/10 11/11/11 12/12/12
f 13/13/13 14/14/14 15/15/15 16/16/16
f 3/3/3 17/17/17 18/18/18 19/19/19
f 20/20/20 21/21/21 22/22/22 23/23/23
f 2/2/2 24/24/24 17/17/17 3/3/3
f 25/25/25 26/26/26 14/14/14 13/13/13
f 12/12/12 11/11/11 27/27/27 28/28/28
f 8/8/8 7/7/7 29/29/29 30/30/30
f 4/4/4 3/3/3 19/19/19 31/31/31
f 23/23/23 22/22/22 32/32/32 33/33/33
f 33/33/33 32/32/32 34/34/34 35/35/35
f 19/19/19 18/18/18 36/36/36 37/37/37
f 16/16/16 15/15/15 38/38/38 39/39/39
f 28/28/28 27/27/27 40/40/40 41/41/41
f 30/30/30 29/29/29 42/42/42 43/43/43
f 31/31/31 19/19/19 37/37/37 44/44/44
f 45/45/45 46/46/46 25/25/25 24/24/24
f 21/47/21 1/1/1 4/4/4 22/48/22
f 18/18/18 16/16/16 39/39/39 36/36/36
f 42/49/42 41/50/41 40/51/40
f 17/17/17 13/13/13 16/16/16 18/18/18
f 24/24/24 25/25/25 13/13/13 17/17/17
f 2/2/2 1/1/1 47/52/47 48/53/48
f 49/54/49 50/55/50 6/6/6 5/5/5
f 51/56/51 52/57/52 10/10/10 9/9/9
f 53/58/53 54/59/54 21/21/21 20/20/20
f 48/53/48 45/45/45 24/24/24 2/2/2
f 46/46/46 55/60/55 26/26/26 25/25/25
f 50/61/50 52/62/52 51/63/51
f 1/1/1 21/47/21 54/64/54 47/52/47
f 14/65/14 8/8/8 30/30/30 15/66/15
f 11/11/11 23/23/23 33/33/33 27/27/27
f 29/29/29 28/28/28 41/41/41 42/42/42
f 52/57/52 53/58/53 20/20/20 10/10/10
f 32/67/32 31/31/31 44/44/44 34/68/34
f 22/48/22 4/4/4 31/31/31 32/67/32
f 27/27/27 33/33/33 35/35/35 40/40/40
f 15/66/15 30/30/30 43/43/43 38/69/38
f 10/10/10 20/20/20 23/23/23 11/11/11
f 50/55/50 51/56/51 9/9/9 6/6/6
f 7/7/7 12/12/12 28/28/28 29/29/29
f 6/6/6 9/9/9 12/12/12 7/7/7
f 26/70/26 5/5/5 8/8/8 14/65/14
f 55/71/55 49/54/49 5/5/5 26/70/26
f 38/72/38 43/73/43 35/74/35 34/75/34
f 43/73/43 42/49/42 40/51/40 35/74/35
f 39/76/39 38/72/38 34/75/34 44/77/44
f 36/78/36 39/76/39 44/77/44 37/79/37
f 47/80/47 54/81/54 55/82/55 46/83/46
f 55/82/55 54/81/54 53/84/53 49/85/49
f 49/85/49 53/84/53 52/62/52 50/61/50
f 48/86/48 47/80/47 46/83/46 45/87/45
