# Blender v2.65 (sub 0) OBJ File: 'horse_30.blend'
# www.blender.org
o backRightLeg_LP.002_horse_LP.001_horse_LP.001_Cube.030
v 0.120202 -0.074918 0.169462
v 0.054548 -0.086300 0.233791
v 0.072689 -0.216472 0.372155
v 0.199469 -0.212582 0.238832
v -0.155841 -0.093649 -0.086080
v -0.097430 -0.086506 -0.179976
v -0.109422 -0.229874 -0.242188
v -0.195145 -0.230970 -0.114125
v -0.015649 -0.092330 -0.231057
v 0.048302 -0.087141 -0.223992
v 0.088355 -0.226561 -0.289800
v -0.007387 -0.233734 -0.300663
v -0.222661 -0.242334 0.179374
v -0.237271 -0.236395 0.042573
v -0.266738 -0.355711 0.093254
v -0.231130 -0.370377 0.295435
v -0.118941 -0.224724 0.311572
v -0.109398 -0.369157 0.459363
v 0.085473 -0.366681 0.508362
v 0.122048 -0.072976 -0.138946
v 0.148862 -0.062965 0.025757
v 0.221327 -0.198851 0.033398
v 0.182335 -0.216663 -0.189115
v -0.109665 -0.088416 0.190198
v -0.164245 -0.099235 0.113760
v -0.178442 -0.092359 0.026005
v 0.135032 -0.327796 -0.293716
v 0.026930 -0.330945 -0.317728
v -0.098125 -0.323555 -0.267407
v -0.220914 -0.336175 -0.102151
v 0.245432 -0.359417 0.369480
v 0.288058 -0.334312 0.120292
v 0.250912 -0.341173 -0.140941
v 0.310304 -0.588193 0.185767
v 0.280104 -0.591437 -0.037985
v -0.101627 -0.591345 0.535296
v 0.091796 -0.590184 0.585208
v -0.279472 -0.589119 0.141465
v -0.213527 -0.591380 0.386042
v 0.161943 -0.597864 -0.170659
v 0.022724 -0.591424 -0.198972
v -0.131658 -0.591323 -0.138478
v -0.244053 -0.589399 -0.005453
v 0.252436 -0.591352 0.438733
v -0.073270 -0.009283 0.157290
v -0.119290 -0.009422 0.084817
v 0.094279 -0.009422 0.120536
v 0.049208 -0.009422 0.175505
v -0.117035 -0.009422 -0.063818
v -0.073445 -0.009422 -0.132164
v -0.007531 -0.009422 -0.179946
v 0.048001 -0.009422 -0.168174
v 0.097726 -0.009422 -0.098517
v 0.116499 -0.010397 0.019156
v -0.134208 -0.009422 0.024327
vt 0.554756 0.691417
vt 0.564371 0.710139
vt 0.536660 0.738191
vt 0.522176 0.710627
vt 0.092563 0.861318
vt 0.116611 0.867657
vt 0.114209 0.898596
vt 0.084372 0.892379
vt 0.135770 0.874322
vt 0.148962 0.874640
vt 0.151257 0.903797
vt 0.134552 0.903254
vt 0.616544 0.764251
vt 0.646483 0.757545
vt 0.636272 0.789532
vt 0.585946 0.793900
vt 0.587753 0.760250
vt 0.554327 0.793267
vt 0.508534 0.770675
vt 0.171732 0.867755
vt 0.207582 0.851962
vt 0.223858 0.886516
vt 0.176225 0.900562
vt 0.600416 0.724893
vt 0.622101 0.727158
vt 0.642198 0.721708
vt 0.156877 0.922502
vt 0.138499 0.920682
vt 0.115622 0.917171
vt 0.075770 0.914578
vt 0.495643 0.744181
vt 0.250643 0.921918
vt 0.191552 0.926852
vt 0.249636 0.987436
vt 0.209509 0.986036
vt 0.530030 0.839184
vt 0.481819 0.813010
vt 0.632351 0.845888
vt 0.573328 0.845888
vt 0.165604 0.983008
vt 0.131755 0.976949
vt 0.091950 0.975697
vt 0.049638 0.972609
vt 0.457310 0.780653
vt 0.607673 0.705073
vt 0.623487 0.706746
vt 0.549822 0.657830
vt 0.515027 0.665380
vt 0.046188 0.786933
vt 0.038293 0.751665
vt 0.049696 0.722719
vt 0.575503 0.678867
vt 0.581396 0.694293
vt 0.096235 0.843294
vt 0.115426 0.848555
vt 0.134434 0.854041
vt 0.147723 0.852011
vt 0.168072 0.844844
vt 0.193850 0.830094
vt 0.638045 0.705301
vt 0.015780 0.136598
vt 0.036219 0.173237
vt 0.019786 0.163713
vt 0.573938 0.655031
vt 0.048790 0.884844
vt 0.025532 0.911342
vt 0.483547 0.691344
vt 0.427178 0.713368
vt 0.012953 0.969209
vt 0.066931 0.851084
vt 0.075427 0.835316
vt 0.104567 0.828641
vt 0.070750 0.815809
vt 0.082441 0.702092
vt 0.121168 0.701566
vt 0.162966 0.823185
vt 0.190884 0.725001
vt 0.199003 0.804473
vt 0.215490 0.754555
vt 0.117357 0.100741
vt 0.095655 0.133570
vt 0.038860 0.078268
vt 0.057205 0.061858
vt 0.065191 0.166638
vt 0.021781 0.109181
vt 0.119648 0.076151
vt 0.080849 0.058368
vn 0.711509 0.575884 0.402539
vn 0.182592 0.664724 0.724387
vn 0.167028 0.701895 0.692404
vn 0.738639 0.570727 0.358623
vn -0.850826 0.396924 -0.344249
vn -0.638661 0.435347 -0.634449
vn -0.654073 0.229133 -0.720847
vn -0.885800 0.227668 -0.404340
vn -0.204779 0.485092 -0.850124
vn 0.351634 0.514695 -0.781915
vn 0.399091 0.344615 -0.849666
vn -0.193518 0.270760 -0.942961
vn -0.864315 0.397534 0.308023
vn -0.955107 0.290963 -0.055483
vn -0.991974 0.125889 -0.010987
vn -0.877712 0.263771 0.399976
vn -0.497147 0.603412 0.623432
vn -0.509140 0.431776 0.744499
vn 0.201117 0.490707 0.847774
vn 0.772210 0.487075 -0.407941
vn 0.870998 0.491165 0.008087
vn 0.890164 0.454634 -0.029603
vn 0.800134 0.392743 -0.453322
vn -0.526841 0.575976 0.625019
vn -0.821711 0.476974 0.311838
vn -0.906003 0.422712 -0.021455
vn 0.515549 -0.041200 -0.855831
vn -0.077395 -0.134770 -0.987823
vn -0.583056 -0.098025 -0.806482
vn -0.899441 0.014039 -0.436750
vn 0.800501 0.378948 0.464278
vn 0.961699 0.272408 0.029572
vn 0.905942 0.119114 -0.406262
vn 0.774255 -0.631275 0.044832
vn 0.707999 -0.661153 -0.248115
vn -0.439863 -0.536180 0.720389
vn 0.192999 -0.487472 0.851527
vn -0.767663 -0.640522 0.019959
vn -0.696890 -0.619343 0.361522
vn 0.373821 -0.761284 -0.529771
vn -0.074587 -0.770531 -0.633015
vn -0.432752 -0.755608 -0.491684
vn -0.675100 -0.683981 -0.276345
vn 0.692648 -0.571276 0.440260
vn -0.310648 0.827448 0.467727
vn -0.497971 0.844905 0.195227
vn 0.476394 0.850429 0.223090
vn 0.170019 0.834284 0.524400
vn -0.518204 0.832820 -0.194525
vn -0.393262 0.846370 -0.359142
vn -0.125370 0.831629 -0.540971
vn 0.296243 0.832545 -0.468062
vn 0.512345 0.833613 -0.206244
vn 0.546648 0.837306 0.007019
vn -0.560564 0.828059 0.003906
s 1
f 1/1/1 2/2/2 3/3/3 4/4/4
f 5/5/5 6/6/6 7/7/7 8/8/8
f 9/9/9 10/10/10 11/11/11 12/12/12
f 13/13/13 14/14/14 15/15/15 16/16/16
f 3/3/3 17/17/17 18/18/18 19/19/19
f 20/20/20 21/21/21 22/22/22 23/23/23
f 2/2/2 24/24/24 17/17/17 3/3/3
f 25/25/25 26/26/26 14/14/14 13/13/13
f 12/12/12 11/11/11 27/27/27 28/28/28
f 8/8/8 7/7/7 29/29/29 30/30/30
f 4/4/4 3/3/3 19/19/19 31/31/31
f 23/23/23 22/22/22 32/32/32 33/33/33
f 33/33/33 32/32/32 34/34/34 35/35/35
f 19/19/19 18/18/18 36/36/36 37/37/37
f 16/16/16 15/15/15 38/38/38 39/39/39
f 28/28/28 27/27/27 40/40/40 41/41/41
f 30/30/30 29/29/29 42/42/42 43/43/43
f 31/31/31 19/19/19 37/37/37 44/44/44
f 45/45/45 46/46/46 25/25/25 24/24/24
f 21/47/21 1/1/1 4/4/4 22/48/22
f 18/18/18 16/16/16 39/39/39 36/36/36
f 42/49/42 41/50/41 40/51/40
f 17/17/17 13/13/13 16/16/16 18/18/18
f 24/24/24 25/25/25 13/13/13 17/17/17
f 2/2/2 1/1/1 47/52/47 48/53/48
f 49/54/49 50/55/50 6/6/6 5/5/5
f 51/56/51 52/57/52 10/10/10 9/9/9
f 53/58/53 54/59/54 21/21/21 20/20/20
f 48/53/48 45/45/45 24/24/24 2/2/2
f 46/46/46 55/60/55 26/26/26 25/25/25
f 50/61/50 52/62/52 51/63/51
f 1/1/1 21/47/21 54/64/54 47/52/47
f 14/65/14 8/8/8 30/30/30 15/66/15
f 11/11/11 23/23/23 33/33/33 27/27/27
f 29/29/29 28/28/28 41/41/41 42/42/42
f 52/57/52 53/58/53 20/20/20 10/10/10
f 32/67/32 31/31/31 44/44/44 34/68/34
f 22/48/22 4/4/4 31/31/31 32/67/32
f 27/27/27 33/33/33 35/35/35 40/40/40
f 15/66/15 30/30/30 43/43/43 38/69/38
f 10/10/10 20/20/20 23/23/23 11/11/11
f 50/55/50 51/56/51 9/9/9 6/6/6
f 7/7/7 12/12/12 28/28/28 29/29/29
f 6/6/6 9/9/9 12/12/12 7/7/7
f 26/70/26 5/5/5 8/8/8 14/65/14
f 55/71/55 49/54/49 5/5/5 26/70/26
f 38/72/38 43/73/43 35/74/35 34/75/34
f 43/73/43 42/49/42 40/51/40 35/74/35
f 39/76/39 38/72/38 34/75/34 44/77/44
f 36/78/36 39/76/39 44/77/44 37/79/37
f 47/80/47 54/81/54 55/82/55 46/83/46
f 55/82/55 54/81/54 53/84/53 49/85/49
f 49/85/49 53/84/53 52/62/52 50/61/50
f 48/86/48 47/80/47 46/83/46 45/87/45
