# Blender v2.65 (sub 0) OBJ File: 'horse_32.blend'
# www.blender.org
o horse_LP.001_horse_LP.001_Cube.001_horse_LP.001_horse_LP.001_Cube.008
v 0.028474 0.456148 0.954289
v 0.422752 0.342934 0.841793
v 0.397002 0.705701 0.545301
v 0.011511 0.799314 0.662189
v 0.024587 -0.570644 0.866517
v 0.007220 -0.986636 0.599967
v 0.455729 -0.702066 0.663493
v 0.462101 -0.494542 0.765037
v 0.728754 0.175990 0.409413
v 0.430528 -0.096238 0.903754
v 0.745433 -0.035753 0.443317
v 0.684826 0.381274 -0.163152
v 0.378482 0.775933 -0.341100
v 0.380046 0.854516 0.105008
v 0.686312 0.424564 0.054440
v 0.734298 -0.165516 -0.367274
v 0.449709 -0.381310 -0.735675
v 0.405546 0.052150 -0.790226
v 0.716796 0.035709 -0.397373
v 0.770944 -0.358477 0.223167
v 0.719035 -0.770827 -0.088945
v 0.777797 -0.381914 -0.042165
v 0.025261 0.167988 -0.863925
v 0.023106 0.566301 -0.710379
v 0.392034 0.479596 -0.675081
v 0.027937 -0.320369 -0.822841
v 0.487391 -0.713865 -0.642294
v 0.039956 -0.871719 -0.646903
v 0.039324 0.841217 -0.345016
v 0.037135 0.934062 0.168410
v 0.347633 -2.720095 -0.518723
v 0.357545 -2.906172 -0.536533
v -0.066703 -2.894300 -0.560349
v -0.026199 -2.680008 -0.570004
v -0.219903 -2.686599 -0.256198
v -0.244951 -2.895240 -0.238709
v -0.085408 -2.888689 0.105534
v -0.059769 -2.674052 0.114562
v 0.490226 -2.709062 -0.240220
v 0.487371 -2.920237 -0.242646
v 0.368215 -2.711907 0.058089
v 0.311241 -2.914505 0.086028
v -0.006273 -3.113908 -0.008957
v 0.272801 -3.111914 -0.033976
v -0.128937 -3.110280 -0.249021
v 0.025462 -3.110761 -0.458207
v 0.269011 -3.123193 -0.433852
v 0.365576 -3.123363 -0.248226
v 0.322156 -2.400751 -0.418618
v 0.003606 -2.400292 -0.497587
v -0.163483 -2.444032 -0.240301
v 0.009854 -2.438639 0.097190
v 0.313150 -2.428952 0.045037
v 0.424701 -2.409829 -0.207526
v 0.047030 -0.099313 1.022722
v 0.705145 0.351257 0.265517
v 0.760202 0.004596 0.001285
v 0.758026 -0.238075 0.377236
v 0.756513 -0.317327 -0.262054
v 0.699176 0.238896 -0.327951
v -0.097347 -1.262459 -0.181541
v 0.341131 -2.074144 -0.392719
v 0.030494 -2.045925 -0.486309
v -0.103311 -2.130904 -0.228805
v 0.056727 -2.120371 0.107099
v 0.325191 -2.112791 0.052155
v 0.419013 -2.099255 -0.180145
v 0.036576 -1.352924 0.386990
v 0.487814 -1.153462 0.371227
v 0.575154 -1.201854 -0.126841
v 0.524181 -1.094836 -0.475383
v -0.111114 -1.607117 -0.199270
v 0.031880 -1.300551 -0.556628
v 0.423223 -1.570729 -0.405018
v 0.031938 -1.556069 -0.526583
v -0.113026 -1.676284 -0.209265
v 0.033556 -1.618411 0.287135
v 0.397638 -1.610348 0.192046
v 0.482436 -1.642667 -0.153717
vt 0.906750 0.090302
vt 0.829590 0.152700
vt 0.870234 0.204155
vt 0.959612 0.175554
vt 0.712709 0.026322
vt 0.610855 0.043871
vt 0.611612 0.151963
vt 0.692415 0.129261
vt 0.777902 0.199163
vt 0.766428 0.125826
vt 0.746321 0.185726
vt 0.785195 0.285661
vt 0.844175 0.325695
vt 0.872446 0.268406
vt 0.799330 0.257017
vt 0.689905 0.291954
vt 0.653595 0.338281
vt 0.722662 0.366744
vt 0.724438 0.306186
vt 0.668913 0.198795
vt 0.575804 0.222943
vt 0.651010 0.234285
vt 0.757697 0.466017
vt 0.853025 0.443458
vt 0.790600 0.361759
vt 0.654345 0.443995
vt 0.583223 0.296819
vt 0.546118 0.393767
vt 0.927092 0.372285
vt 0.964612 0.274594
vt 0.252741 0.231641
vt 0.183741 0.205903
vt 0.134011 0.281065
vt 0.192744 0.275487
vt 0.749224 0.559892
vt 0.799232 0.557172
vt 0.807504 0.494666
vt 0.762249 0.502046
vt 0.275324 0.170650
vt 0.209276 0.156235
vt 0.764051 0.614519
vt 0.811203 0.616385
vt 0.282829 0.104214
vt 0.207801 0.094233
vt 0.243308 0.040190
vt 0.194058 0.018361
vt 0.140236 0.036360
vt 0.144363 0.093706
vt 0.847986 0.557827
vt 0.861421 0.602327
vt 0.920711 0.599941
vt 0.944520 0.555489
vt 0.093264 0.236132
vt 0.122584 0.184246
vt 0.136571 0.140736
vt 0.858564 0.510346
vt 0.918517 0.509243
vt 0.417982 0.264230
vt 0.369431 0.334627
vt 0.596168 0.633989
vt 0.624000 0.554752
vt 0.427081 0.042031
vt 0.447220 0.128088
vt 0.425564 0.196797
vt 0.602609 0.453703
vt 0.072257 0.652713
vt 0.158406 0.696213
vt 0.258541 0.700624
vt 0.812400 0.036207
vt 0.798225 0.224891
vt 0.726215 0.245627
vt 0.709315 0.187444
vt 0.654719 0.271223
vt 0.758407 0.303693
vt 0.023984 0.567402
vt 0.347404 0.661962
vt 0.442970 0.405359
vt 0.428285 0.653459
vt 0.498776 0.549612
vt 0.393880 0.584054
vt 0.028067 0.463308
vt 0.399131 0.487223
vt 0.072988 0.380532
vt 0.383767 0.371957
vt 0.144652 0.308070
vt 0.438637 0.268304
vt 0.391517 0.342019
vt 0.575182 0.636423
vt 0.608347 0.554110
vt 0.450053 0.042261
vt 0.467769 0.131072
vt 0.444344 0.200065
vt 0.582654 0.447660
vt 0.518968 0.042951
vt 0.529416 0.140026
vt 0.500684 0.209870
vt 0.500602 0.280525
vt 0.561388 0.552182
vt 0.522790 0.429531
vt 0.512226 0.643724
vt 0.457775 0.364197
vt 0.459292 0.272377
vt 0.413603 0.349412
vt 0.554197 0.638857
vt 0.592694 0.553467
vt 0.473024 0.042491
vt 0.488318 0.134057
vt 0.463124 0.203333
vt 0.562699 0.441617
vn -0.509903 0.367779 0.777612
vn 0.595782 0.331309 0.731590
vn 0.583636 0.692312 0.424268
vn -0.523881 0.710501 0.469802
vn -0.584368 -0.335948 0.738639
vn -0.633717 -0.362590 0.683309
vn 0.610126 -0.438368 0.659963
vn 0.596881 -0.337321 0.727928
vn 0.930479 0.206793 0.302347
vn 0.569781 -0.060121 0.819575
vn 0.937803 0.026490 0.346080
vn 0.906186 0.388501 -0.166967
vn 0.513657 0.777429 -0.362926
vn 0.535752 0.843776 0.031648
vn 0.907010 0.421033 -0.003418
vn 0.923185 -0.001404 -0.384320
vn 0.519822 -0.149998 -0.840968
vn 0.503647 0.089969 -0.859188
vn 0.910703 0.102512 -0.400067
vn 0.963622 -0.167455 0.208167
vn 0.970275 -0.240089 -0.030030
vn 0.991058 -0.129917 -0.029359
vn -0.583300 0.118778 -0.803491
vn -0.577960 0.468856 -0.667898
vn 0.518479 0.477706 -0.709189
vn -0.626545 -0.128819 -0.768639
vn 0.589404 -0.252510 -0.767327
vn -0.626576 -0.162328 -0.762230
vn -0.571856 0.746483 -0.340159
vn -0.517899 0.853877 0.051302
vn 0.572192 0.141758 -0.807764
vn 0.554064 -0.231025 -0.799738
vn -0.500839 -0.216163 -0.838099
vn -0.390484 0.179510 -0.902921
vn -0.979797 0.185064 -0.075655
vn -0.981597 -0.187841 -0.033937
vn -0.526780 -0.196997 0.826807
vn -0.495071 0.137181 0.857936
vn 0.995575 0.090548 -0.024934
vn 0.963530 -0.267464 0.004913
vn 0.641469 0.037294 0.766228
vn 0.481094 -0.272652 0.833155
vn -0.302103 -0.798547 0.520585
vn 0.357646 -0.802881 0.476882
vn -0.625050 -0.776971 -0.074740
vn -0.260537 -0.791131 -0.553331
vn 0.305887 -0.813410 -0.494705
vn 0.576128 -0.817347 0.001984
vn 0.630665 0.153691 -0.760643
vn -0.398236 0.208777 -0.893185
vn -0.977050 0.209754 -0.036470
vn -0.439283 0.119755 0.890316
vn 0.600452 0.044923 0.798364
vn 0.994232 0.106449 -0.011628
vn -0.530290 -0.077334 0.844264
vn 0.916776 0.363506 0.165319
vn 0.994324 0.101871 -0.030091
vn 0.944243 -0.111240 0.309824
vn 0.951506 -0.074038 -0.298532
vn 0.908719 0.265236 -0.322245
vn -0.995209 0.085208 -0.047700
vn 0.677572 -0.047914 -0.733848
vn -0.391491 0.012268 -0.920072
vn -0.997986 0.051271 -0.037202
vn -0.457503 -0.113407 0.881924
vn 0.660176 -0.165868 0.732536
vn 0.995849 -0.090762 -0.000732
vn -0.524155 -0.358257 0.772576
vn 0.695883 -0.380200 0.609210
vn 0.974853 -0.222114 -0.016907
vn 0.704245 -0.243416 -0.666860
vn -0.997131 -0.052644 -0.053957
vn -0.484909 -0.146825 -0.862117
vn 0.700797 -0.175146 -0.691488
vn -0.422132 -0.092715 -0.901761
vn -0.995911 -0.059358 -0.067690
vn -0.498795 -0.288491 0.817255
vn 0.674825 -0.323191 0.663411
vn 0.980010 -0.198553 -0.009339
s 1
f 1/1/1 2/2/2 3/3/3 4/4/4
f 5/5/5 6/6/6 7/7/7 8/8/8
f 9/9/9 2/2/2 10/10/10 11/11/11
f 12/12/12 13/13/13 14/14/14 15/15/15
f 16/16/16 17/17/17 18/18/18 19/19/19
f 20/20/20 7/7/7 21/21/21 22/22/22
f 23/23/23 24/24/24 25/25/25 18/18/18
f 26/26/26 17/17/17 27/27/27 28/28/28
f 29/29/29 13/13/13 25/25/25 24/24/24
f 30/30/30 4/4/4 3/3/3 14/14/14
f 31/31/31 32/32/32 33/33/33 34/34/34
f 35/35/35 36/36/36 37/37/37 38/38/38
f 39/39/39 40/40/40 32/32/32 31/31/31
f 34/41/34 33/42/33 36/36/36 35/35/35
f 41/43/41 42/44/42 40/40/40 39/39/39
f 38/45/38 37/46/37 42/44/42 41/43/41
f 37/46/37 43/47/43 42/44/42
f 42/44/42 43/47/43 44/48/44
f 45/49/45 46/50/46 47/51/47 48/52/48
f 32/32/32 46/53/46 33/33/33
f 32/32/32 47/54/47 46/53/46
f 42/44/42 44/48/44 48/55/48 40/40/40
f 33/42/33 46/50/46 36/36/36
f 36/36/36 46/50/46 45/49/45
f 43/56/43 45/49/45 48/52/48 44/57/44
f 49/58/49 31/31/31 34/34/34 50/59/50
f 50/60/50 34/41/34 35/35/35 51/61/51
f 52/62/52 38/45/38 41/43/41 53/63/53
f 53/63/53 41/43/41 39/39/39 54/64/54
f 51/61/51 35/35/35 38/38/38 52/65/52
f 54/64/54 39/39/39 31/31/31 49/58/49
f 4/66/4 30/67/30 29/68/29
f 40/40/40 48/55/48 47/54/47 32/32/32
f 30/30/30 14/14/14 13/13/13 29/29/29
f 23/23/23 18/18/18 17/17/17 26/26/26
f 2/2/2 1/1/1 55/69/55 10/10/10
f 55/69/55 5/5/5 8/8/8 10/10/10
f 15/15/15 56/70/56 57/71/57
f 56/70/56 9/9/9 57/71/57
f 11/11/11 58/72/58 57/71/57
f 58/72/58 20/20/20 57/71/57
f 22/22/22 59/73/59 57/71/57
f 59/73/59 16/16/16 57/71/57
f 19/19/19 60/74/60 57/71/57
f 60/74/60 12/12/12 57/71/57
f 1/75/1 4/66/4 29/68/29 24/76/24
f 6/77/6 28/78/28 61/79/61
f 1/75/1 24/76/24 23/80/23 55/81/55
f 55/81/55 23/80/23 26/82/26 5/83/5
f 5/83/5 26/82/26 28/84/28 6/85/6
f 36/36/36 45/49/45 43/56/43 37/37/37
f 62/86/62 49/58/49 50/59/50 63/87/63
f 63/88/63 50/60/50 51/61/51 64/89/64
f 65/90/65 52/62/52 53/63/53 66/91/66
f 66/91/66 53/63/53 54/64/54 67/92/67
f 64/89/64 51/61/51 52/65/52 65/93/65
f 67/92/67 54/64/54 49/58/49 62/86/62
f 6/6/6 68/94/68 69/95/69 7/7/7
f 21/21/21 70/96/70 71/97/71 27/27/27
f 61/79/61 72/98/72 68/99/68 6/77/6
f 28/78/28 73/100/73 72/98/72 61/79/61
f 27/27/27 71/97/71 73/101/73 28/28/28
f 7/7/7 69/95/69 70/96/70 21/21/21
f 57/71/57 9/9/9 11/11/11
f 57/71/57 12/12/12 15/15/15
f 57/71/57 16/16/16 19/19/19
f 57/71/57 20/20/20 22/22/22
f 14/14/14 3/3/3 56/70/56 15/15/15
f 3/3/3 2/2/2 9/9/9 56/70/56
f 10/10/10 8/8/8 58/72/58 11/11/11
f 8/8/8 7/7/7 20/20/20 58/72/58
f 21/21/21 27/27/27 59/73/59 22/22/22
f 27/27/27 17/17/17 16/16/16 59/73/59
f 18/18/18 25/25/25 60/74/60 19/19/19
f 25/25/25 13/13/13 12/12/12 60/74/60
f 71/97/71 74/102/74 75/103/75 73/101/73
f 73/100/73 75/104/75 76/105/76 72/98/72
f 68/94/68 77/106/77 78/107/78 69/95/69
f 69/95/69 78/107/78 79/108/79 70/96/70
f 72/98/72 76/105/76 77/109/77 68/99/68
f 70/96/70 79/108/79 74/102/74 71/97/71
f 78/107/78 66/91/66 67/92/67 79/108/79
f 77/106/77 65/90/65 66/91/66 78/107/78
f 79/108/79 67/92/67 62/86/62 74/102/74
f 75/104/75 63/88/63 64/89/64 76/105/76
f 76/105/76 64/89/64 65/93/65 77/109/77
f 74/102/74 62/86/62 63/87/63 75/103/75
