# Blender v2.65 (sub 0) OBJ File: 'horse_30.blend'
# www.blender.org
o frontLeftLeg_LP.003_horse_LP.001_horse_LP.001_Cube.028
v 0.124744 -0.071269 0.167302
v 0.059090 -0.082651 0.231631
v 0.077231 -0.212823 0.369995
v 0.204012 -0.208932 0.236672
v -0.151298 -0.090000 -0.088240
v -0.092888 -0.082857 -0.182137
v -0.104879 -0.226224 -0.244348
v -0.190602 -0.227321 -0.116285
v -0.011107 -0.088680 -0.233217
v 0.052844 -0.083491 -0.226152
v 0.092898 -0.222911 -0.291960
v -0.002844 -0.230084 -0.302823
v -0.218118 -0.238685 0.177214
v -0.232728 -0.232746 0.040413
v -0.262195 -0.352061 0.091094
v -0.226587 -0.366727 0.293275
v -0.114398 -0.221075 0.309412
v -0.104855 -0.365508 0.457202
v 0.090015 -0.363032 0.506202
v 0.126590 -0.069326 -0.141106
v 0.153404 -0.059316 0.023597
v 0.225870 -0.195201 0.031238
v 0.186878 -0.213014 -0.191275
v -0.105123 -0.084766 0.188038
v -0.159703 -0.095585 0.111599
v -0.173900 -0.088709 0.023845
v 0.139574 -0.324147 -0.295876
v 0.031472 -0.327295 -0.319888
v -0.093583 -0.319906 -0.269567
v -0.216371 -0.332526 -0.104311
v 0.249974 -0.355768 0.367320
v 0.292601 -0.330663 0.118132
v 0.255455 -0.337523 -0.143101
v 0.314847 -0.584544 0.183607
v 0.284647 -0.587788 -0.040145
v -0.097084 -0.587696 0.533136
v 0.096338 -0.586535 0.583048
v -0.274930 -0.585470 0.139305
v -0.208985 -0.587730 0.383882
v 0.166485 -0.594214 -0.172819
v 0.027266 -0.587774 -0.201132
v -0.127115 -0.587674 -0.140638
v -0.239510 -0.585750 -0.007613
v 0.256979 -0.587703 0.436573
v -0.068727 -0.005633 0.155130
v -0.114747 -0.005773 0.082657
v 0.098821 -0.005773 0.118376
v 0.053751 -0.005773 0.173345
v -0.112493 -0.005773 -0.065978
v -0.068902 -0.005773 -0.134325
v -0.002988 -0.005773 -0.182106
v 0.052544 -0.005773 -0.170334
v 0.102268 -0.005773 -0.100677
v 0.121042 -0.006748 0.016996
v -0.129666 -0.005773 0.022167
vt 0.824268 0.099287
vt 0.833883 0.118009
vt 0.806172 0.146061
vt 0.791688 0.118497
vt 0.805509 0.840076
vt 0.829557 0.846415
vt 0.827155 0.877354
vt 0.797317 0.871137
vt 0.848716 0.853080
vt 0.861908 0.853398
vt 0.864203 0.882555
vt 0.847498 0.882012
vt 0.886056 0.172121
vt 0.915995 0.165415
vt 0.905784 0.197402
vt 0.855458 0.201770
vt 0.857265 0.168120
vt 0.823839 0.201137
vt 0.778046 0.178545
vt 0.884678 0.846513
vt 0.920528 0.830720
vt 0.936804 0.865274
vt 0.889171 0.879320
vt 0.869928 0.132763
vt 0.891613 0.135028
vt 0.911710 0.129578
vt 0.869823 0.901260
vt 0.851445 0.899440
vt 0.828568 0.895929
vt 0.788716 0.893336
vt 0.765155 0.152051
vt 0.963589 0.900676
vt 0.904497 0.905610
vt 0.962582 0.966194
vt 0.922455 0.964794
vt 0.799542 0.247054
vt 0.751331 0.220880
vt 0.901863 0.253758
vt 0.842840 0.253758
vt 0.878550 0.961766
vt 0.844701 0.955707
vt 0.804896 0.954455
vt 0.762584 0.951367
vt 0.726822 0.188523
vt 0.877185 0.112943
vt 0.892999 0.114616
vt 0.819334 0.065700
vt 0.784539 0.073250
vt 0.417325 0.810798
vt 0.451273 0.798401
vt 0.481452 0.805958
vt 0.845015 0.086737
vt 0.850908 0.102163
vt 0.809180 0.822052
vt 0.828372 0.827313
vt 0.847379 0.832799
vt 0.860669 0.830769
vt 0.881017 0.823602
vt 0.906795 0.808852
vt 0.907557 0.113171
vt 0.019763 0.116683
vt 0.040202 0.153322
vt 0.023769 0.143798
vt 0.843450 0.062901
vt 0.761735 0.863602
vt 0.738478 0.890100
vt 0.753059 0.099214
vt 0.696690 0.121238
vt 0.725899 0.947967
vt 0.779877 0.829842
vt 0.788373 0.814074
vt 0.383532 0.874088
vt 0.391874 0.838894
vt 0.506148 0.835754
vt 0.511686 0.874087
vt 0.396507 0.931288
vt 0.497481 0.946251
vt 0.419730 0.964598
vt 0.471363 0.974479
vt 0.121340 0.080826
vt 0.099638 0.113655
vt 0.042843 0.058353
vt 0.061188 0.041943
vt 0.069174 0.146723
vt 0.025764 0.089266
vt 0.123631 0.056236
vt 0.084832 0.038453
vn 0.711509 0.575884 0.402539
vn 0.182592 0.664724 0.724387
vn 0.167028 0.701895 0.692404
vn 0.738639 0.570727 0.358623
vn -0.850826 0.396924 -0.344249
vn -0.638661 0.435347 -0.634449
vn -0.654073 0.229133 -0.720847
vn -0.885800 0.227668 -0.404340
vn -0.204779 0.485092 -0.850124
vn 0.351634 0.514695 -0.781915
vn 0.399091 0.344615 -0.849666
vn -0.193518 0.270760 -0.942961
vn -0.864315 0.397534 0.308023
vn -0.955107 0.290963 -0.055483
vn -0.991974 0.125889 -0.010987
vn -0.877712 0.263771 0.399976
vn -0.497147 0.603442 0.623432
vn -0.509140 0.431776 0.744499
vn 0.201117 0.490707 0.847774
vn 0.772210 0.487075 -0.407941
vn 0.870998 0.491165 0.008087
vn 0.890164 0.454634 -0.029603
vn 0.800134 0.392743 -0.453322
vn -0.526841 0.575976 0.625019
vn -0.821711 0.476974 0.311838
vn -0.906003 0.422712 -0.021455
vn 0.515549 -0.041200 -0.855831
vn -0.077395 -0.134770 -0.987823
vn -0.583056 -0.098025 -0.806482
vn -0.899441 0.014039 -0.436750
vn 0.800501 0.378948 0.464278
vn 0.961699 0.272408 0.029572
vn 0.905942 0.119114 -0.406262
vn 0.774255 -0.631275 0.044832
vn 0.707999 -0.661153 -0.248115
vn -0.439863 -0.536180 0.720389
vn 0.192999 -0.487472 0.851527
vn -0.767663 -0.640522 0.019959
vn -0.696890 -0.619343 0.361522
vn 0.373821 -0.761284 -0.529771
vn -0.074587 -0.770531 -0.633015
vn -0.432752 -0.755608 -0.491684
vn -0.675100 -0.683981 -0.276345
vn 0.692648 -0.571276 0.440260
vn -0.310648 0.827448 0.467727
vn -0.497971 0.844905 0.195227
vn 0.476394 0.850429 0.223090
vn 0.170019 0.834284 0.524400
vn -0.518204 0.832820 -0.194525
vn -0.393262 0.846370 -0.359142
vn -0.125370 0.831629 -0.540971
vn 0.296243 0.832545 -0.468062
vn 0.512345 0.833613 -0.206244
vn 0.546648 0.837306 0.007019
vn -0.560564 0.828059 0.003906
s 1
f 1/1/1 2/2/2 3/3/3 4/4/4
f 5/5/5 6/6/6 7/7/7 8/8/8
f 9/9/9 10/10/10 11/11/11 12/12/12
f 13/13/13 14/14/14 15/15/15 16/16/16
f 3/3/3 17/17/17 18/18/18 19/19/19
f 20/20/20 21/21/21 22/22/22 23/23/23
f 2/2/2 24/24/24 17/17/17 3/3/3
f 25/25/25 26/26/26 14/14/14 13/13/13
f 12/12/12 11/11/11 27/27/27 28/28/28
f 8/8/8 7/7/7 29/29/29 30/30/30
f 4/4/4 3/3/3 19/19/19 31/31/31
f 23/23/23 22/22/22 32/32/32 33/33/33
f 33/33/33 32/32/32 34/34/34 35/35/35
f 19/19/19 18/18/18 36/36/36 37/37/37
f 16/16/16 15/15/15 38/38/38 39/39/39
f 28/28/28 27/27/27 40/40/40 41/41/41
f 30/30/30 29/29/29 42/42/42 43/43/43
f 31/31/31 19/19/19 37/37/37 44/44/44
f 45/45/45 46/46/46 25/25/25 24/24/24
f 21/47/21 1/1/1 4/4/4 22/48/22
f 18/18/18 16/16/16 39/39/39 36/36/36
f 42/49/42 41/50/41 40/51/40
f 17/17/17 13/13/13 16/16/16 18/18/18
f 24/24/24 25/25/25 13/13/13 17/17/17
f 2/2/2 1/1/1 47/52/47 48/53/48
f 49/54/49 50/55/50 6/6/6 5/5/5
f 51/56/51 52/57/52 10/10/10 9/9/9
f 53/58/53 54/59/54 21/21/21 20/20/20
f 48/53/48 45/45/45 24/24/24 2/2/2
f 46/46/46 55/60/55 26/26/26 25/25/25
f 50/61/50 52/62/52 51/63/51
f 1/1/1 21/47/21 54/64/54 47/52/47
f 14/65/14 8/8/8 30/30/30 15/66/15
f 11/11/11 23/23/23 33/33/33 27/27/27
f 29/29/29 28/28/28 41/41/41 42/42/42
f 52/57/52 53/58/53 20/20/20 10/10/10
f 32/67/32 31/31/31 44/44/44 34/68/34
f 22/48/22 4/4/4 31/31/31 32/67/32
f 27/27/27 33/33/33 35/35/35 40/40/40
f 15/66/15 30/30/30 43/43/43 38/69/38
f 10/10/10 20/20/20 23/23/23 11/11/11
f 50/55/50 51/56/51 9/9/9 6/6/6
f 7/7/7 12/12/12 28/28/28 29/29/29
f 6/6/6 9/9/9 12/12/12 7/7/7
f 26/70/26 5/5/5 8/8/8 14/65/14
f 55/71/55 49/54/49 5/5/5 26/70/26
f 38/72/38 43/73/43 35/74/35 34/75/34
f 43/73/43 42/49/42 40/51/40 35/74/35
f 39/76/39 38/72/38 34/75/34 44/77/44
f 36/78/36 39/76/39 44/77/44 37/79/37
f 47/80/47 54/81/54 55/82/55 46/83/46
f 55/82/55 54/81/54 53/84/53 49/85/49
f 49/85/49 53/84/53 52/62/52 50/61/50
f 48/86/48 47/80/47 46/83/46 45/87/45
