# Blender v2.65 (sub 0) OBJ File: 'horse_30.blend'
# www.blender.org
o frontLeftLeg_LP.002_horse_LP.001_horse_LP.001_Cube.027
v 0.011568 -0.695099 0.167040
v 0.005929 -0.921052 0.185935
v 0.131739 -0.921052 0.002214
v 0.126603 -0.676354 0.005971
v -0.155785 -0.670927 -0.215661
v -0.193462 -0.918044 -0.239964
v -0.277441 -0.918909 0.010333
v -0.241435 -0.664411 0.012290
v 0.042216 -0.915920 -0.191372
v 0.026237 -0.677696 -0.168364
v -0.152302 -0.678138 0.193867
v -0.180400 -0.921052 0.207523
v -0.236488 -1.161124 0.270287
v 0.087135 -1.195141 0.231391
v -0.265008 -1.190339 -0.293613
v -0.382369 -1.185658 0.030142
v 0.240790 -1.198707 0.010891
v 0.115150 -1.393548 0.003875
v 0.017373 -1.393548 -0.200867
v 0.059975 -1.211070 -0.274036
v -0.181431 -1.393548 -0.194722
v 0.032566 -1.393548 0.173884
v -0.242108 -1.393548 0.041996
v -0.173832 -1.393548 0.184495
v -0.086687 -0.019554 0.144872
v 0.064532 -0.012247 0.113231
v -0.151995 -0.016519 -0.005141
v 0.170907 -0.019259 -0.000831
v 0.066403 -0.017522 -0.131957
v -0.083853 -0.018239 -0.160512
v 0.071404 -0.071009 0.150012
v 0.186804 -0.087994 0.005861
v -0.098945 -0.068553 -0.193130
v -0.179692 -0.071009 0.001212
v 0.069696 -0.071009 -0.161723
v -0.105116 -0.071009 0.163653
vt 0.296653 0.836006
vt 0.296653 0.885065
vt 0.352389 0.885065
vt 0.352389 0.836006
vt 0.118357 0.836006
vt 0.118357 0.885065
vt 0.176844 0.885065
vt 0.176844 0.836006
vt 0.010949 0.836006
vt 0.010949 0.885065
vt 0.063108 0.885065
vt 0.063108 0.836006
vt 0.237359 0.836006
vt 0.237359 0.885065
vt 0.237359 0.940430
vt 0.296653 0.940430
vt 0.118357 0.940430
vt 0.176844 0.940430
vt 0.010949 0.940430
vt 0.010949 0.987163
vt 0.063108 0.987163
vt 0.063108 0.940430
vt 0.118357 0.987163
vt 0.296653 0.987163
vt 0.352389 0.987163
vt 0.352389 0.940430
vt 0.176844 0.987163
vt 0.237359 0.987163
vt 0.563153 0.934678
vt 0.610673 0.958572
vt 0.577701 0.880284
vt 0.663763 0.950616
vt 0.663706 0.892908
vt 0.629345 0.853023
vt 0.170329 0.644323
vt 0.071192 0.669774
vt 0.138497 0.686797
vt 0.055125 0.608351
vt 0.165852 0.562357
vt 0.083727 0.562173
vt 0.296653 0.724674
vt 0.352389 0.724674
vt 0.118357 0.724674
vt 0.176844 0.724674
vt 0.010949 0.724674
vt 0.063108 0.724674
vt 0.237359 0.724674
vt 0.296653 0.703504
vt 0.352389 0.703505
vt 0.118357 0.703504
vt 0.176844 0.703504
vt 0.010949 0.703505
vt 0.063108 0.703505
vt 0.237359 0.703505
vn 0.508438 0.012268 0.860988
vn 0.488876 0.169927 0.855617
vn 0.978393 0.201056 0.047548
vn 0.998138 -0.020234 0.057253
vn -0.464339 0.114383 -0.878201
vn -0.475417 0.258065 -0.841029
vn -0.964293 0.258431 0.057741
vn -0.990448 0.128025 0.051180
vn 0.587939 0.175604 -0.789575
vn 0.588244 0.024964 -0.808252
vn -0.464522 0.094607 0.880459
vn -0.441603 0.230689 0.867031
vn -0.475661 -0.029328 0.879116
vn 0.542497 -0.065127 0.837519
vn -0.570086 -0.096713 -0.815851
vn -0.992157 -0.087954 0.088504
vn 0.996918 -0.069857 0.035035
vn 0.596423 -0.802606 0.007019
vn 0.320963 -0.776971 -0.541520
vn 0.516892 -0.113498 -0.848476
vn -0.339915 -0.799676 -0.494888
vn 0.322550 -0.758660 0.565966
vn -0.561266 -0.823084 0.086459
vn -0.285073 -0.758812 0.585559
vn -0.288675 0.772973 0.564898
vn 0.319376 0.802393 0.504074
vn -0.601947 0.798456 -0.010163
vn 0.703269 0.710776 -0.013153
vn 0.377209 0.773095 -0.509873
vn -0.296487 0.798242 -0.524247
vn 0.479843 0.194067 0.855586
vn 0.992157 0.116031 0.045930
vn -0.431898 0.296579 -0.851741
vn -0.959899 0.278329 0.032960
vn 0.540086 0.183966 -0.821223
vn -0.473342 0.287332 0.832667
s 1
f 1/1/1 2/2/2 3/3/3 4/4/4
f 5/5/5 6/6/6 7/7/7 8/8/8
f 4/9/4 3/10/3 9/11/9 10/12/10
f 2/2/2 1/1/1 11/13/11 12/14/12
f 8/8/8 7/7/7 12/14/12 11/13/11
f 10/12/10 9/11/9 6/6/6 5/5/5
f 12/14/12 13/15/13 14/16/14 2/2/2
f 6/6/6 15/17/15 16/18/16 7/7/7
f 17/19/17 18/20/18 19/21/19 20/22/20
f 20/22/20 19/21/19 21/23/21 15/17/15
f 14/16/14 22/24/22 18/25/18 17/26/17
f 2/2/2 14/16/14 17/26/17 3/3/3
f 9/11/9 20/22/20 15/17/15 6/6/6
f 3/10/3 17/19/17 20/22/20 9/11/9
f 7/7/7 16/18/16 13/15/13 12/14/12
f 16/18/16 23/27/23 24/28/24 13/15/13
f 15/17/15 21/23/21 23/27/23 16/18/16
f 13/15/13 24/28/24 22/24/22 14/16/14
f 25/29/25 26/30/26 27/31/27
f 27/31/27 26/30/26 28/32/28
f 27/31/27 28/32/28 29/33/29
f 27/31/27 29/33/29 30/34/30
f 23/35/23 22/36/22 24/37/24
f 18/38/18 22/36/22 23/35/23
f 18/38/18 23/35/23 21/39/21
f 18/38/18 21/39/21 19/40/19
f 31/41/31 1/1/1 4/4/4 32/42/32
f 33/43/33 5/5/5 8/8/8 34/44/34
f 32/45/32 4/9/4 10/12/10 35/46/35
f 1/1/1 31/41/31 36/47/36 11/13/11
f 34/44/34 8/8/8 11/13/11 36/47/36
f 35/46/35 10/12/10 5/5/5 33/43/33
f 26/48/26 31/41/31 32/42/32 28/49/28
f 30/50/30 33/43/33 34/44/34 27/51/27
f 28/52/28 32/45/32 35/46/35 29/53/29
f 31/41/31 26/48/26 25/54/25 36/47/36
f 27/51/27 34/44/34 36/47/36 25/54/25
f 29/53/29 35/46/35 33/43/33 30/50/30
