# Blender v2.65 (sub 0) OBJ File: 'horse_30.blend'
# www.blender.org
o tail_LP_horse_LP.001_horse_LP.001_Cube.007
v 0.316697 -0.348492 -0.196805
v -0.011429 -0.308021 -0.194828
v -0.010794 -0.978887 -0.310244
v 0.279831 -0.957895 -0.301045
v 0.207192 0.113705 -0.063721
v 0.254042 -0.325709 -0.490317
v 0.245301 0.005061 -0.303632
v -0.311802 -0.341164 -0.200640
v -0.243557 -0.324636 -0.489100
v -0.195220 -0.965550 -0.552645
v -0.269624 -0.960244 -0.293281
v -0.193898 0.119438 -0.058362
v -0.251827 -0.003304 -0.296355
v 0.003549 0.227176 -0.045760
v 0.002679 0.129032 -0.380282
v -0.003071 -0.249380 -0.592498
v -0.185640 -1.627123 -0.500578
v -0.221576 -1.605116 -0.321902
v -0.011190 -1.650423 -0.344371
v 0.234506 -1.606174 -0.324220
v 0.005764 -0.939045 -0.654990
v 0.204911 -0.968120 -0.554109
v 0.195090 -1.626989 -0.504080
v 0.209495 -2.246404 -0.428483
v 0.179070 -2.268271 -0.548659
v 0.006148 -1.627980 -0.612004
v 0.006507 -2.240093 -0.632881
v -0.163853 -2.268348 -0.541871
v -0.011337 -2.273612 -0.455811
v -0.202816 -2.246459 -0.432509
v -0.095104 -2.868796 -0.630951
v 0.010242 -2.972778 -0.659093
v -0.098942 -2.860213 -0.666245
v 0.009801 -2.968267 -0.702440
v 0.118057 -2.863454 -0.630170
v 0.113909 -2.861064 -0.657720
v 0.239396 -0.633573 -0.528732
v -0.011341 -0.633574 -0.263999
v 0.001648 -0.031777 -0.493508
v 0.304139 -0.639692 -0.262290
v -0.230819 -0.634859 -0.532652
v -0.276813 -0.076390 -0.116519
v -0.003958 0.000480 -0.110260
v -0.297234 -0.640896 -0.256787
v -0.260460 -0.150402 -0.398174
v 0.002564 -0.582888 -0.642622
v 0.265172 -0.148277 -0.400864
v 0.292356 -0.076407 -0.113791
v 0.230445 0.072590 -0.218142
v -0.232226 0.071044 -0.220866
v 0.002705 0.225250 -0.211009
v 0.222685 -1.938098 -0.359730
v 0.004942 -1.938971 -0.610441
v 0.169732 -2.581880 -0.595944
v -0.157029 -2.578558 -0.595684
v -0.187404 -1.287584 -0.525923
v -0.241831 -1.274456 -0.306465
v -0.010891 -1.308314 -0.324080
v 0.255996 -1.276749 -0.311070
v 0.008265 -1.268634 -0.628599
v 0.196067 -1.288504 -0.525395
v -0.169293 -1.955450 -0.518958
v -0.213734 -1.938789 -0.367970
v 0.005466 -2.681352 -0.700792
v 0.005620 -2.593075 -0.549669
v 0.188498 -1.955893 -0.524535
v -0.010977 -1.972095 -0.387987
v 0.186341 -2.563234 -0.522682
v -0.163942 -2.557703 -0.528585
v 0.009729 -2.924245 -0.709459
v 0.009722 -2.928691 -0.646706
v -0.058685 -2.937443 -0.647724
v 0.073486 -2.934011 -0.650743
v 0.070762 -2.929219 -0.683373
v -0.058432 -2.931095 -0.684764
vt 0.164456 0.506828
vt 0.232027 0.443257
vt 0.300683 0.519174
vt 0.233100 0.571871
vt 0.365961 0.590862
vt 0.301361 0.636745
vt 0.861899 0.506582
vt 0.792738 0.554946
vt 0.724480 0.488960
vt 0.788041 0.434285
vt 0.896301 0.765570
vt 0.835346 0.791175
vt 0.816244 0.771060
vt 0.867272 0.735201
vt 0.924253 0.704957
vt 0.907982 0.683777
vt 0.628761 0.577795
vt 0.572658 0.637665
vt 0.507213 0.558235
vt 0.558165 0.508093
vt 0.681064 0.538630
vt 0.612278 0.466448
vt 0.658940 0.414022
vt 0.353094 0.463519
vt 0.409475 0.537396
vt 0.789980 0.825577
vt 0.713128 0.365883
vt 0.586371 0.331536
vt 0.633482 0.295458
vt 0.434046 0.665572
vt 0.371242 0.704389
vt 0.747848 0.608559
vt 0.295514 0.388086
vt 0.690885 0.651602
vt 0.639891 0.715837
vt 0.411213 0.347598
vt 0.376855 0.389981
vt 0.321577 0.305262
vt 0.343450 0.271227
vt 0.507708 0.257695
vt 0.463010 0.305214
vt 0.394291 0.232872
vt 0.436085 0.184081
vt 0.470756 0.613406
vt 0.533104 0.380999
vt 0.441568 0.475047
vt 0.481052 0.429882
vt 0.690533 0.956090
vt 0.707077 0.944447
vt 0.699477 0.966112
vt 0.382373 0.108756
vt 0.362927 0.117624
vt 0.290487 0.075153
vt 0.293887 0.064228
vt 0.439797 0.774784
vt 0.498490 0.736554
vt 0.559971 0.803871
vt 0.505275 0.840648
vt 0.549376 0.227852
vt 0.469534 0.166150
vt 0.535617 0.688393
vt 0.595412 0.758881
vt 0.230870 0.094184
vt 0.241282 0.069037
vt 0.251268 0.079665
vt 0.241871 0.094957
vt 0.279425 0.194354
vt 0.267436 0.214691
vt 0.231600 0.124504
vt 0.240718 0.120057
vt 0.257691 0.087147
vt 0.677944 0.970058
vt 0.804041 0.666558
vt 0.749748 0.706464
vt 0.709750 0.780760
vt 0.166340 0.370743
vt 0.238447 0.318746
vt 0.845086 0.617061
vt 0.921116 0.583384
vt 0.102723 0.444290
vt 0.860816 0.832169
vt 0.964463 0.736605
vt 0.926916 0.797884
vt 0.880794 0.649810
vt 0.781559 0.743333
vt 0.839026 0.705055
vt 0.051684 0.377586
vt 0.031358 0.317925
vt 0.053244 0.252716
vt 0.101487 0.302556
vt 0.175983 0.265046
vt 0.960130 0.663899
vt 0.117584 0.236830
vt 0.622290 0.879586
vt 0.575762 0.907614
vt 0.651218 0.837346
vt 0.300541 0.133745
vt 0.267602 0.059504
vt 0.267832 0.071642
vt 0.700984 0.921946
vt 0.653765 0.962947
vn 0.792749 -0.161992 0.587573
vn 0.006806 -0.165014 0.986236
vn 0.014130 -0.078707 0.996796
vn 0.794183 -0.120640 0.595569
vn 0.013367 -0.043733 0.998932
vn 0.775048 -0.074313 0.627491
vn -0.786554 -0.159490 0.596515
vn -0.775292 0.013550 -0.631428
vn -0.760643 -0.053194 -0.646962
vn -0.779626 -0.127171 0.613147
vn 0.001556 0.960631 -0.277718
vn 0.751671 0.625568 -0.208777
vn 0.768334 0.486862 -0.415418
vn -0.000793 0.737144 -0.675710
vn -0.766198 0.614856 -0.186621
vn -0.813257 0.441298 -0.379223
vn 0.758599 -0.046724 -0.649861
vn 0.783441 -0.059816 -0.618549
vn 0.003174 -0.026704 -0.999634
vn 0.005371 -0.075045 -0.997162
vn -0.786828 -0.061647 -0.614032
vn -0.758232 -0.078280 0.647237
vn 0.748924 -0.001282 0.662618
vn -0.807276 -0.024110 -0.589648
vn -0.739860 -0.094638 0.666036
vn 0.004028 -0.093051 0.995636
vn 0.748466 -0.086276 0.657491
vn -0.001129 0.083590 -0.996490
vn 0.776543 0.019868 -0.629719
vn 0.791162 0.019929 -0.611255
vn 0.736106 -0.142796 0.661611
vn 0.744957 -0.209174 0.633442
vn 0.790490 0.052736 -0.610157
vn -0.779992 0.021943 -0.625385
vn -0.018250 0.042421 -0.998932
vn -0.014069 0.106632 -0.994171
vn -0.787133 0.053377 -0.614429
vn -0.005341 -0.020081 -0.999756
vn 0.804193 -0.020173 -0.594012
vn 0.009980 -0.283608 0.958861
vn -0.510514 -0.678671 0.527940
vn 0.041017 -0.900571 0.432722
vn -0.739677 -0.280557 0.611652
vn -0.844447 -0.017762 -0.535295
vn -0.831019 -0.166204 -0.530778
vn -0.668050 -0.438063 0.601459
vn -0.005249 -0.175115 0.984527
vn -0.007721 -0.251869 0.967711
vn -0.761773 -0.146275 0.631062
vn -0.772668 -0.204871 0.600787
vn 0.532975 -0.680990 0.502121
vn 0.029908 -0.747612 -0.663411
vn 0.686819 -0.427351 -0.587878
vn 0.812891 0.002289 -0.582385
vn 0.753594 -0.275094 0.596973
vn 0.711783 -0.450301 0.539018
vn 0.806787 -0.177252 -0.563616
vn 0.025361 -0.030122 -0.999207
vn -0.013520 0.291604 -0.956420
vn 0.762535 0.150304 -0.629200
vn 0.784631 -0.148228 0.601947
vn -0.002045 -0.246101 0.969237
vn -0.796503 -0.132939 0.589801
vn -0.762352 0.147862 -0.629994
vn 0.567827 0.421644 0.706931
vn -0.549120 0.412183 0.727012
vn 0.005493 0.708152 0.705985
vn -0.808222 0.295022 -0.509629
vn 0.799982 0.301950 -0.518448
vn -0.006317 0.511338 -0.859340
vn 0.002380 -0.283670 0.958892
vn -0.728416 -0.029817 0.684469
vn -0.009705 -0.289773 0.957030
vn 0.007019 0.106998 -0.994201
vn -0.687155 -0.452834 -0.568072
s 1
f 40/1/1 38/2/2 3/3/3 4/4/4
f 4/4/4 3/3/3 58/5/5 59/6/6
f 44/7/7 41/8/8 10/9/9 11/10/10
f 51/11/11 49/12/12 7/13/13 15/14/14
f 50/15/15 51/11/11 15/14/14 13/16/16
f 22/17/17 4/18/4 59/19/6 61/20/18
f 10/9/9 21/21/19 60/22/20 56/23/21
f 3/3/3 11/24/10 57/25/22 58/5/5
f 49/12/12 48/26/23 7/13/13
f 57/27/22 56/23/21 17/28/24 18/29/25
f 59/6/6 58/5/5 19/30/26 20/31/27
f 41/8/8 46/32/28 21/21/19 10/9/9
f 38/2/2 44/33/7 11/24/10 3/3/3
f 37/34/29 40/35/1 4/18/4 22/17/17
f 46/32/28 37/34/29 22/17/17 21/21/19
f 66/36/30 52/37/31 24/38/32 25/39/33
f 62/40/34 53/41/35 27/42/36 28/43/37
f 58/5/5 57/25/22 18/44/25 19/30/26
f 56/23/21 60/22/20 26/45/38 17/28/24
f 61/20/18 59/19/6 20/46/27 23/47/39
f 60/22/20 61/20/18 23/47/39 26/45/38
f 71/48/40 72/49/41 32/50/42
f 69/51/43 55/52/44 33/53/45 31/54/46
f 53/41/35 66/36/30 25/39/33 27/42/36
f 52/55/31 67/56/47 29/57/48 24/58/32
f 63/59/49 62/40/34 28/43/37 30/60/50
f 67/56/47 63/61/49 30/62/50 29/57/48
f 73/63/51 32/64/42 34/65/52 74/66/53
f 54/67/54 68/68/55 35/69/56 36/70/57
f 70/71/58 74/66/53 34/65/52
f 73/72/51 71/48/40 32/50/42
f 20/31/27 19/30/26 67/56/47 52/55/31
f 16/73/59 6/74/60 37/34/29 46/32/28
f 6/74/60 1/75/61 40/35/1 37/34/29
f 2/76/62 8/77/63 44/33/7 38/2/2
f 9/78/64 16/73/59 46/32/28 41/8/8
f 8/79/63 9/78/64 41/8/8 44/7/7
f 1/80/61 2/76/62 38/2/2 40/1/1
f 5/81/65 49/12/12 51/11/11
f 12/82/66 14/83/67 51/11/11
f 9/78/64 8/79/63 45/84/68
f 48/26/23 1/75/61 47/85/69
f 48/26/23 47/85/69 7/13/13
f 1/75/61 6/74/60 47/85/69
f 45/84/68 39/86/70 16/73/59 9/78/64
f 39/86/70 47/85/69 6/74/60 16/73/59
f 48/87/23 5/88/65 14/89/67 43/90/71
f 42/91/72 8/77/63 2/76/62 43/90/71
f 42/92/72 12/82/66 50/15/15
f 8/79/63 42/92/72 45/84/68
f 13/16/16 15/14/14 39/86/70 45/84/68
f 15/14/14 7/13/13 47/85/69 39/86/70
f 1/80/61 48/87/23 43/90/71 2/76/62
f 12/93/66 42/91/72 43/90/71 14/89/67
f 45/84/68 42/92/72 13/16/16
f 42/92/72 50/15/15 13/16/16
f 5/81/65 48/26/23 49/12/12
f 11/10/10 10/9/9 56/23/21 57/27/22
f 21/21/19 22/17/17 61/20/18 60/22/20
f 24/58/32 29/57/48 65/94/73 68/95/55
f 23/47/39 20/46/27 52/37/31 66/36/30
f 30/60/50 28/43/37 55/52/44 69/51/43
f 19/30/26 18/44/25 63/61/49 67/56/47
f 17/28/24 26/45/38 53/41/35 62/40/34
f 26/45/38 23/47/39 66/36/30 53/41/35
f 18/29/25 17/28/24 62/40/34 63/59/49
f 29/57/48 30/62/50 69/96/43 65/94/73
f 25/39/33 24/38/32 68/68/55 54/67/54
f 28/43/37 27/42/36 64/97/74 55/52/44
f 27/42/36 25/39/33 54/67/54 64/97/74
f 50/15/15 12/82/66 51/11/11
f 14/83/67 5/81/65 51/11/11
f 72/98/41 31/54/46 33/53/45 75/99/75
f 64/97/74 54/67/54 36/70/57
f 64/97/74 36/70/57 70/71/58
f 36/70/57 74/66/53 70/71/58
f 65/94/73 69/96/43 31/100/46
f 65/94/73 31/100/46 71/48/40
f 31/100/46 72/49/41 71/48/40
f 35/69/56 73/63/51 74/66/53 36/70/57
f 68/95/55 65/94/73 35/101/56
f 65/94/73 71/48/40 35/101/56
f 71/48/40 73/72/51 35/101/56
f 32/64/42 72/98/41 75/99/75 34/65/52
f 75/99/75 70/71/58 34/65/52
f 55/52/44 64/97/74 33/53/45
f 64/97/74 70/71/58 33/53/45
f 70/71/58 75/99/75 33/53/45
